# xmcd CD database file
#
# Track frame offsets:
#	150
#	14817
#	28344
#	42723
#	65818
#	92120
#	110231
#	124099
#	144810
#	158519
#	170210
#	182777
#	197854
#	210587
#	223099
#	237284
#	250934
#	264307
#	282282
#	296688
#
# Disc length: 4160 seconds
#
# Revision: 0
# Processed by: cddbd v1.5.2PL0 Copyright (c) Steve Scherf et al.
# Submitted via: CDex 1.70beta2
#
DISCID=44103e14
DTITLE=Louis Armstrong - Red Collection [CD1]
DYEAR=2007
DGENRE=Jazz
TTITLE0=Maybe It’s Because 
TTITLE1=Got No Blues 
TTITLE2=Feeling I’m Falling 
TTITLE3=Duke’s Place 
TTITLE4=Basin Street Blue 
TTITLE5=Ain’t Misbehavin’ 
TTITLE6=C’est Si Bon 
TTITLE7=A Foggy Day (With Earl Hines)
TTITLE8=A Kiss To Build A Dream On 
TTITLE9=Dardanella
TTITLE10=Don’t Jive Me (With Earl Hines) 
TTITLE11=Gully Low Blues 
TTITLE12=Muggles 
TTITLE13=Gut Bucket B
TTITLE14=15, I Surrender Dear
TTITLE15=I'll keep the lovelight burning in my heart
TTITLE16=Last night I dreamey you kissed me
TTITLE17=Mahagony hall stomp
TTITLE18=Little Joe
TTITLE19=I get ideas
EXTD=YEAR: 2007
EXTT0=
EXTT1=
EXTT2=
EXTT3=
EXTT4=
EXTT5=
EXTT6=
EXTT7=
EXTT8=
EXTT9=
EXTT10=
EXTT11=
EXTT12=
EXTT13=
EXTT14=
EXTT15=
EXTT16=
EXTT17=
EXTT18=
EXTT19=
PLAYORDER=
